<?xml version="1.0" standalone="no"?>
<!DOCTYPE svg PUBLIC "-//W3C//DTD SVG 20010904//EN"
 "http://www.w3.org/TR/2001/REC-SVG-20010904/DTD/svg10.dtd">
<svg version="1.0" xmlns="http://www.w3.org/2000/svg"
 width="1100.000000pt" height="1100.000000pt" viewBox="0 0 1100.000000 1100.000000"
 preserveAspectRatio="xMidYMid meet">
<metadata>
Created by potrace 1.11, written by Peter Selinger 2001-2013
</metadata>
<g transform="translate(0.000000,1100.000000) scale(0.100000,-0.100000)"
fill="#000000" stroke="none">
<path d="M5477 8094 c-1 -1 -49 -4 -107 -8 -58 -3 -116 -8 -130 -10 -14 -2
-43 -7 -65 -10 -23 -4 -52 -9 -65 -12 -14 -3 -34 -6 -45 -8 -42 -7 -203 -55
-250 -76 -11 -5 -45 -19 -75 -31 -30 -13 -58 -27 -61 -32 -3 -5 -8 -7 -10 -6
-2 2 -40 -16 -84 -40 -67 -37 -108 -63 -180 -113 -13 -9 -132 -106 -164 -133
-21 -18 -111 -109 -193 -197 -16 -16 -28 -32 -28 -36 0 -4 -9 -14 -20 -22 -11
-8 -20 -18 -20 -22 0 -4 -16 -29 -36 -55 -19 -27 -41 -55 -47 -64 -34 -45
-140 -252 -166 -324 -12 -33 -25 -67 -28 -75 -7 -18 -6 -14 -22 -70 -15 -51
-15 -50 -35 -145 -22 -105 -25 -123 -33 -205 -13 -139 -8 -360 11 -490 15
-102 24 -151 46 -231 7 -24 14 -51 17 -59 2 -8 4 -16 4 -17 0 -2 8 -23 19 -48
11 -25 17 -45 13 -45 -3 0 0 -7 7 -15 7 -8 9 -15 6 -15 -4 0 3 -15 16 -32 13
-18 22 -34 20 -36 -9 -8 112 -233 130 -240 4 -2 8 -7 8 -12 0 -4 50 -82 110
-174 61 -91 110 -170 110 -176 0 -5 4 -10 8 -10 5 0 17 -16 28 -35 10 -19 22
-35 26 -35 5 0 8 -5 8 -12 0 -6 11 -26 25 -44 14 -18 25 -37 25 -43 0 -6 3
-11 8 -11 4 0 23 -27 42 -60 19 -33 38 -60 43 -60 4 0 7 -4 7 -9 0 -5 54 -90
120 -190 66 -100 120 -184 120 -187 0 -3 8 -14 18 -25 11 -10 25 -32 33 -47 8
-15 16 -29 19 -32 14 -14 50 -70 50 -78 0 -5 9 -17 20 -27 11 -10 20 -22 20
-27 0 -5 5 -14 10 -21 10 -11 199 -299 347 -527 34 -52 66 -99 70 -105 5 -5
20 -28 33 -50 13 -22 28 -41 32 -43 4 -2 8 -10 8 -18 0 -8 5 -14 10 -14 6 0
10 -5 10 -10 0 -13 70 -108 96 -132 20 -18 69 -40 94 -44 8 -1 24 -3 35 -5 31
-5 115 11 115 22 0 5 6 9 13 9 27 0 74 61 209 270 20 30 88 135 152 233 64 98
116 180 116 183 0 8 44 69 53 72 4 2 7 8 7 12 0 5 20 38 45 74 25 37 45 68 45
70 0 5 186 289 199 303 6 7 11 15 11 19 0 4 10 21 23 38 12 17 29 43 36 59 8
15 18 27 23 27 4 0 8 5 8 11 0 7 16 34 35 60 19 27 35 54 35 59 0 6 5 10 10
10 6 0 10 4 10 9 0 6 14 30 30 54 17 25 30 49 30 54 0 4 -139 148 -310 318
-300 299 -311 309 -332 296 -189 -120 -495 -172 -738 -126 -223 43 -388 132
-556 301 -210 210 -306 443 -308 744 0 129 9 216 29 280 3 10 7 27 9 37 19 92
123 282 211 382 71 81 195 188 262 225 15 9 35 21 43 26 21 13 102 51 120 55
8 2 35 12 60 21 52 18 73 24 115 29 17 2 30 4 30 5 0 12 264 16 345 6 98 -13
310 -80 310 -98 0 -5 6 -8 14 -8 16 0 139 -78 144 -92 2 -4 9 -8 15 -8 7 0 42
-29 78 -63 189 -179 306 -394 337 -622 8 -63 8 -275 0 -335 -7 -48 -26 -135
-35 -160 -3 -8 -7 -20 -8 -26 -2 -6 -22 -52 -45 -101 l-42 -91 272 -271 c149
-149 274 -271 276 -271 6 0 110 162 164 255 43 76 57 102 93 185 17 39 65 175
72 205 35 150 48 213 49 248 0 9 3 17 6 17 14 0 20 426 6 505 -3 22 -8 56 -10
75 -8 59 -16 98 -25 123 -6 14 -8 27 -5 29 2 3 -5 34 -16 69 -11 35 -25 80
-31 99 -6 19 -20 55 -31 80 -19 42 -39 89 -43 100 -8 23 -21 49 -36 70 -9 14
-17 28 -18 33 -2 15 -127 205 -163 249 -13 14 -37 43 -54 65 -42 51 -180 188
-239 238 -67 56 -208 157 -253 180 -20 11 -39 23 -42 26 -9 11 -213 106 -245
115 -5 1 -39 12 -75 24 -81 26 -165 48 -210 54 -19 3 -46 7 -60 10 -71 15
-343 38 -353 30z"/>
<path d="M5537 6784 c-4 -4 -7 -158 -7 -343 l0 -335 -188 184 c-103 102 -194
194 -201 205 -8 11 -31 36 -53 55 l-40 35 -45 -50 c-55 -62 -117 -188 -139
-280 -22 -97 -15 -265 16 -355 23 -67 64 -150 90 -184 39 -51 125 -137 163
-163 23 -15 44 -30 47 -33 8 -9 113 -57 145 -66 286 -84 589 20 762 264 47 65
99 184 104 237 2 17 6 35 10 40 12 19 1 229 -15 290 -37 133 -118 255 -230
347 -56 46 -156 106 -179 107 -4 0 -21 8 -37 16 -16 8 -32 15 -35 14 -3 0 -22
2 -43 5 -92 14 -119 16 -125 10z"/>
</g>
</svg>
